{
  "accessors": [
    {
      "bufferView": 2,
      "componentType": 5126,
      "count": 12615,
      "max": [
        89.051261901855469,
        145.49037170410156,
        88.846405029296875
      ],
      "min": [
        -89.051261901855469,
        -145.49037170410156,
        -88.846405029296875
      ],
      "type": "VEC3"
    },
    {
      "bufferView": 2,
      "byteOffset": 151380,
      "componentType": 5126,
      "count": 12615,
      "max": [
        0.99999445676803589,
        0.99993836879730225,
        0.99983513355255127
      ],
      "min": [
        -0.99947172403335571,
        -0.99999946355819702,
        -0.99998658895492554
      ],
      "type": "VEC3"
    },
    {
      "bufferView": 3,
      "componentType": 5126,
      "count": 12615,
      "max": [
        0.99997895956039429,
        0.99871295690536499,
        0.99969351291656494,
        1
      ],
      "min": [
        -0.99989241361618042,
        -0.99972385168075562,
        -0.99950933456420898,
        1
      ],
      "type": "VEC4"
    },
    {
      "bufferView": 1,
      "componentType": 5126,
      "count": 12615,
      "max": [
        0.99532032012939453,
        0.99542492628097534
      ],
      "min": [
        0.0061179287731647491,
        0.014816999435424805
      ],
      "type": "VEC2"
    },
    {
      "bufferView": 1,
      "byteOffset": 100920,
      "componentType": 5126,
      "count": 12615,
      "max": [
        0.99532032012939453,
        0.99542492628097534
      ],
      "min": [
        0.0061179287731647491,
        0.014816999435424805
      ],
      "type": "VEC2"
    },
    {
      "bufferView": 1,
      "byteOffset": 201840,
      "componentType": 5126,
      "count": 12615,
      "max": [
        0.99532032012939453,
        0.99542492628097534
      ],
      "min": [
        0.0061179287731647491,
        0.014816999435424805
      ],
      "type": "VEC2"
    },
    {
      "bufferView": 0,
      "componentType": 5125,
      "count": 71556,
      "max": [
        12614
      ],
      "min": [
        0
      ],
      "type": "SCALAR"
    },
    {
      "bufferView": 2,
      "byteOffset": 302760,
      "componentType": 5126,
      "count": 11759,
      "max": [
        112.23303985595703,
        125.50325775146484,
        93.660530090332031
      ],
      "min": [
        -112.23303985595703,
        -125.50325775146484,
        -93.660530090332031
      ],
      "type": "VEC3"
    },
    {
      "bufferView": 2,
      "byteOffset": 443868,
      "componentType": 5126,
      "count": 11759,
      "max": [
        0.9998704195022583,
        0.99955952167510986,
        1
      ],
      "min": [
        -0.99975019693374634,
        -0.99955958127975464,
        -1
      ],
      "type": "VEC3"
    },
    {
      "bufferView": 3,
      "byteOffset": 201840,
      "componentType": 5126,
      "count": 11759,
      "max": [
        0.99996030330657959,
        0.99958062171936035,
        0.9999997615814209,
        1
      ],
      "min": [
        -0.99999374151229858,
        -0.99993085861206055,
        -1,
        -1
      ],
      "type": "VEC4"
    },
    {
      "bufferView": 1,
      "byteOffset": 302760,
      "componentType": 5126,
      "count": 11759,
      "max": [
        0.99773180484771729,
        0.998046875
      ],
      "min": [
        0.001953125,
        0.001953125
      ],
      "type": "VEC2"
    },
    {
      "bufferView": 1,
      "byteOffset": 396832,
      "componentType": 5126,
      "count": 11759,
      "max": [
        0.99773180484771729,
        0.998046875
      ],
      "min": [
        0.001953125,
        0.001953125
      ],
      "type": "VEC2"
    },
    {
      "bufferView": 1,
      "byteOffset": 490904,
      "componentType": 5126,
      "count": 11759,
      "max": [
        0.99773180484771729,
        0.998046875
      ],
      "min": [
        0.001953125,
        0.001953125
      ],
      "type": "VEC2"
    },
    {
      "bufferView": 0,
      "byteOffset": 286224,
      "componentType": 5125,
      "count": 52470,
      "max": [
        11758
      ],
      "min": [
        0
      ],
      "type": "SCALAR"
    },
    {
      "bufferView": 2,
      "byteOffset": 584976,
      "componentType": 5126,
      "count": 3567,
      "max": [
        82.049140930175781,
        33.386219024658203,
        17.5
      ],
      "min": [
        -82.049140930175781,
        -33.386219024658203,
        -17.5
      ],
      "type": "VEC3"
    },
    {
      "bufferView": 2,
      "byteOffset": 627780,
      "componentType": 5126,
      "count": 3567,
      "max": [
        0.99949890375137329,
        1,
        0.99999791383743286
      ],
      "min": [
        -0.99949890375137329,
        -1,
        -1
      ],
      "type": "VEC3"
    },
    {
      "bufferView": 3,
      "byteOffset": 389984,
      "componentType": 5126,
      "count": 3567,
      "max": [
        0.99929487705230713,
        0.99920147657394409,
        0.99998706579208374,
        1
      ],
      "min": [
        -0.99929440021514893,
        -0.99997478723526001,
        -0.9999995231628418,
        1
      ],
      "type": "VEC4"
    },
    {
      "bufferView": 1,
      "byteOffset": 584976,
      "componentType": 5126,
      "count": 3567,
      "max": [
        0.99768126010894775,
        0.998046875
      ],
      "min": [
        0.001953125,
        0.001953125
      ],
      "type": "VEC2"
    },
    {
      "bufferView": 1,
      "byteOffset": 613512,
      "componentType": 5126,
      "count": 3567,
      "max": [
        0.99768126010894775,
        0.998046875
      ],
      "min": [
        0.001953125,
        0.001953125
      ],
      "type": "VEC2"
    },
    {
      "bufferView": 1,
      "byteOffset": 642048,
      "componentType": 5126,
      "count": 3567,
      "max": [
        0.99768126010894775,
        0.998046875
      ],
      "min": [
        0.001953125,
        0.001953125
      ],
      "type": "VEC2"
    },
    {
      "bufferView": 0,
      "byteOffset": 496104,
      "componentType": 5125,
      "count": 19692,
      "max": [
        3566
      ],
      "min": [
        0
      ],
      "type": "SCALAR"
    },
    {
      "bufferView": 2,
      "byteOffset": 670584,
      "componentType": 5126,
      "count": 4458,
      "max": [
        40.532413482666016,
        76.84552001953125,
        51.5
      ],
      "min": [
        -40.532413482666016,
        -76.84552001953125,
        -51.5
      ],
      "type": "VEC3"
    },
    {
      "bufferView": 2,
      "byteOffset": 724080,
      "componentType": 5126,
      "count": 4458,
      "max": [
        0.99997442960739136,
        0.99997317790985107,
        1
      ],
      "min": [
        -0.99997931718826294,
        -0.99997317790985107,
        -1
      ],
      "type": "VEC3"
    },
    {
      "bufferView": 3,
      "byteOffset": 447056,
      "componentType": 5126,
      "count": 4458,
      "max": [
        0.99985098838806152,
        0.99999475479125977,
        0.99999058246612549,
        1
      ],
      "min": [
        -0.99996638298034668,
        -0.99967002868652344,
        -1,
        1
      ],
      "type": "VEC4"
    },
    {
      "bufferView": 1,
      "byteOffset": 670584,
      "componentType": 5126,
      "count": 4458,
      "max": [
        0.99897176027297974,
        0.9990234375
      ],
      "min": [
        0.0009765625,
        0.0009765625
      ],
      "type": "VEC2"
    },
    {
      "bufferView": 1,
      "byteOffset": 706248,
      "componentType": 5126,
      "count": 4458,
      "max": [
        0.99897176027297974,
        0.9990234375
      ],
      "min": [
        0.0009765625,
        0.0009765625
      ],
      "type": "VEC2"
    },
    {
      "bufferView": 1,
      "byteOffset": 741912,
      "componentType": 5126,
      "count": 4458,
      "max": [
        0.99897176027297974,
        0.9990234375
      ],
      "min": [
        0.0009765625,
        0.0009765625
      ],
      "type": "VEC2"
    },
    {
      "bufferView": 0,
      "byteOffset": 574872,
      "componentType": 5125,
      "count": 16218,
      "max": [
        4457
      ],
      "min": [
        0
      ],
      "type": "SCALAR"
    },
    {
      "bufferView": 2,
      "byteOffset": 777576,
      "componentType": 5126,
      "count": 4267,
      "max": [
        40.532413482666016,
        72.970428466796875,
        51.5
      ],
      "min": [
        -40.532413482666016,
        -72.970428466796875,
        -51.5
      ],
      "type": "VEC3"
    },
    {
      "bufferView": 2,
      "byteOffset": 828780,
      "componentType": 5126,
      "count": 4267,
      "max": [
        0.99997931718826294,
        0.99997317790985107,
        1
      ],
      "min": [
        -0.99997442960739136,
        -0.99997317790985107,
        -1
      ],
      "type": "VEC3"
    },
    {
      "bufferView": 3,
      "byteOffset": 518384,
      "componentType": 5126,
      "count": 4267,
      "max": [
        0.99996638298034668,
        0.99999475479125977,
        1,
        1
      ],
      "min": [
        -0.99985098838806152,
        -0.99881100654602051,
        -0.99999058246612549,
        1
      ],
      "type": "VEC4"
    },
    {
      "bufferView": 1,
      "byteOffset": 777576,
      "componentType": 5126,
      "count": 4267,
      "max": [
        0.99897176027297974,
        0.9990234375
      ],
      "min": [
        0.0009765625,
        0.0009765625
      ],
      "type": "VEC2"
    },
    {
      "bufferView": 0,
      "byteOffset": 639744,
      "componentType": 5125,
      "count": 15582,
      "max": [
        4266
      ],
      "min": [
        0
      ],
      "type": "SCALAR"
    }
  ],
  "asset": {
    "extras": {
      "author": "Halil Kantarci (https://sketchfab.com/hllkntrc)",
      "license": "CC-BY-4.0 (http://creativecommons.org/licenses/by/4.0/)",
      "source": "https://sketchfab.com/3d-models/headphone-with-stand-4ffedc9bffad4a549f6e0a46b0f92b05",
      "title": "Headphone with stand"
    },
    "generator": "Sketchfab-9.11.0",
    "version": "2.0"
  },
  "bufferViews": [
    {
      "buffer": 0,
      "byteLength": 702072,
      "byteOffset": 0,
      "name": "floatBufferViews",
      "target": 34963
    },
    {
      "buffer": 0,
      "byteLength": 811712,
      "byteOffset": 702072,
      "byteStride": 8,
      "name": "floatBufferViews",
      "target": 34962
    },
    {
      "buffer": 0,
      "byteLength": 879984,
      "byteOffset": 1513784,
      "byteStride": 12,
      "name": "floatBufferViews",
      "target": 34962
    },
    {
      "buffer": 0,
      "byteLength": 586656,
      "byteOffset": 2393768,
      "byteStride": 16,
      "name": "floatBufferViews",
      "target": 34962
    }
  ],
  "buffers": [
    {
      "byteLength": 2980424,
      "uri": "scene.bin"
    }
  ],
  "images": [
    {
      "uri": "textures/stand_baseColor.jpeg"
    },
    {
      "uri": "textures/stand_metallicRoughness.png"
    },
    {
      "uri": "textures/stand_normal.png"
    },
    {
      "uri": "textures/cables_baseColor.jpeg"
    },
    {
      "uri": "textures/cables_metallicRoughness.png"
    },
    {
      "uri": "textures/cables_normal.png"
    },
    {
      "uri": "textures/header_baseColor.jpeg"
    },
    {
      "uri": "textures/header_metallicRoughness.png"
    },
    {
      "uri": "textures/header_normal.png"
    },
    {
      "uri": "textures/driverL_baseColor.jpeg"
    },
    {
      "uri": "textures/driverL_metallicRoughness.png"
    },
    {
      "uri": "textures/driverL_normal.png"
    },
    {
      "uri": "textures/driverR_metallicRoughness.png"
    }
  ],
  "materials": [
    {
      "doubleSided": false,
      "name": "stand",
      "normalTexture": {
        "index": 2,
        "scale": 1,
        "texCoord": 0
      },
      "occlusionTexture": {
        "index": 1,
        "strength": 1,
        "texCoord": 0
      },
      "pbrMetallicRoughness": {
        "baseColorFactor": [
          1,
          1,
          1,
          1
        ],
        "baseColorTexture": {
          "index": 0,
          "texCoord": 0
        },
        "metallicFactor": 1,
        "metallicRoughnessTexture": {
          "index": 1,
          "texCoord": 0
        },
        "roughnessFactor": 1
      }
    },
    {
      "doubleSided": false,
      "name": "cables",
      "normalTexture": {
        "index": 5,
        "scale": 1,
        "texCoord": 0
      },
      "occlusionTexture": {
        "index": 4,
        "strength": 1,
        "texCoord": 0
      },
      "pbrMetallicRoughness": {
        "baseColorFactor": [
          1,
          1,
          1,
          1
        ],
        "baseColorTexture": {
          "index": 3,
          "texCoord": 0
        },
        "metallicFactor": 1,
        "metallicRoughnessTexture": {
          "index": 4,
          "texCoord": 0
        },
        "roughnessFactor": 1
      }
    },
    {
      "doubleSided": false,
      "name": "header",
      "normalTexture": {
        "index": 8,
        "scale": 1,
        "texCoord": 0
      },
      "occlusionTexture": {
        "index": 7,
        "strength": 1,
        "texCoord": 0
      },
      "pbrMetallicRoughness": {
        "baseColorFactor": [
          1,
          1,
          1,
          1
        ],
        "baseColorTexture": {
          "index": 6,
          "texCoord": 0
        },
        "metallicFactor": 1,
        "metallicRoughnessTexture": {
          "index": 7,
          "texCoord": 0
        },
        "roughnessFactor": 1
      }
    },
    {
      "doubleSided": false,
      "name": "driverL",
      "normalTexture": {
        "index": 11,
        "scale": 1,
        "texCoord": 0
      },
      "occlusionTexture": {
        "index": 10,
        "strength": 1,
        "texCoord": 0
      },
      "pbrMetallicRoughness": {
        "baseColorFactor": [
          1,
          1,
          1,
          1
        ],
        "baseColorTexture": {
          "index": 9,
          "texCoord": 0
        },
        "metallicFactor": 1,
        "metallicRoughnessTexture": {
          "index": 10,
          "texCoord": 0
        },
        "roughnessFactor": 1
      }
    },
    {
      "doubleSided": false,
      "name": "driverR",
      "normalTexture": {
        "index": 11,
        "scale": 1,
        "texCoord": 0
      },
      "occlusionTexture": {
        "index": 12,
        "strength": 1,
        "texCoord": 0
      },
      "pbrMetallicRoughness": {
        "baseColorFactor": [
          1,
          1,
          1,
          1
        ],
        "baseColorTexture": {
          "index": 9,
          "texCoord": 0
        },
        "metallicFactor": 1,
        "metallicRoughnessTexture": {
          "index": 12,
          "texCoord": 0
        },
        "roughnessFactor": 1
      }
    }
  ],
  "meshes": [
    {
      "name": "stand_stand_0",
      "primitives": [
        {
          "attributes": {
            "NORMAL": 1,
            "POSITION": 0,
            "TANGENT": 2,
            "TEXCOORD_0": 3,
            "TEXCOORD_1": 4,
            "TEXCOORD_2": 5
          },
          "indices": 6,
          "material": 0,
          "mode": 4
        }
      ]
    },
    {
      "name": "cables__cables+_0",
      "primitives": [
        {
          "attributes": {
            "NORMAL": 8,
            "POSITION": 7,
            "TANGENT": 9,
            "TEXCOORD_0": 10,
            "TEXCOORD_1": 11,
            "TEXCOORD_2": 12
          },
          "indices": 13,
          "material": 1,
          "mode": 4
        }
      ]
    },
    {
      "name": "header_header_0",
      "primitives": [
        {
          "attributes": {
            "NORMAL": 15,
            "POSITION": 14,
            "TANGENT": 16,
            "TEXCOORD_0": 17,
            "TEXCOORD_1": 18,
            "TEXCOORD_2": 19
          },
          "indices": 20,
          "material": 2,
          "mode": 4
        }
      ]
    },
    {
      "name": "driverL_driverL_0",
      "primitives": [
        {
          "attributes": {
            "NORMAL": 22,
            "POSITION": 21,
            "TANGENT": 23,
            "TEXCOORD_0": 24,
            "TEXCOORD_1": 25,
            "TEXCOORD_2": 26
          },
          "indices": 27,
          "material": 3,
          "mode": 4
        }
      ]
    },
    {
      "name": "driverR_driverR_0",
      "primitives": [
        {
          "attributes": {
            "NORMAL": 29,
            "POSITION": 28,
            "TANGENT": 30,
            "TEXCOORD_0": 31
          },
          "indices": 32,
          "material": 4,
          "mode": 4
        }
      ]
    }
  ],
  "nodes": [
    {
      "children": [
        1
      ],
      "name": "RootNode (gltf orientation matrix)",
      "rotation": [
        -0.70710678118654746,
        -0,
        -0,
        0.70710678118654757
      ]
    },
    {
      "children": [
        2
      ],
      "matrix": [
        0.0016666667070239782,
        0,
        0,
        0,
        0,
        0.0016666667070239782,
        0,
        0,
        0,
        0,
        0.0016666667070239782,
        0,
        0,
        0,
        0,
        1
      ],
      "name": "RootNode (model correction matrix)"
    },
    {
      "children": [
        3
      ],
      "matrix": [
        1,
        0,
        0,
        0,
        0,
        0,
        1,
        0,
        0,
        -1,
        0,
        0,
        0,
        0,
        0,
        1
      ],
      "name": "6416ee60bcae43dfbd3b03612b6078b1.fbx"
    },
    {
      "children": [
        4
      ],
      "name": "RootNode"
    },
    {
      "children": [
        5,
        7,
        9,
        11,
        13
      ],
      "matrix": [
        1,
        0,
        0,
        0,
        0,
        1,
        0,
        0,
        0,
        0,
        1,
        0,
        -52.816883087158203,
        82.965927124023438,
        -29.903465270996094,
        1
      ],
      "name": "headphone"
    },
    {
      "children": [
        6
      ],
      "matrix": [
        1,
        0,
        0,
        0,
        0,
        1,
        0,
        0,
        0,
        0,
        1,
        0,
        52.835678100585938,
        62.481777191162109,
        29.844671249389648,
        1
      ],
      "name": "stand"
    },
    {
      "mesh": 0,
      "name": "stand_stand_0"
    },
    {
      "children": [
        8
      ],
      "matrix": [
        1,
        0,
        0,
        0,
        0,
        1,
        0,
        0,
        0,
        0,
        1,
        0,
        26.040359497070312,
        42.440330505371094,
        -11.357317924499512,
        1
      ],
      "name": "cables_"
    },
    {
      "mesh": 1,
      "name": "cables__cables+_0"
    },
    {
      "children": [
        10
      ],
      "matrix": [
        1,
        0,
        0,
        0,
        0,
        1,
        0,
        0,
        0,
        0,
        1,
        0,
        52.816883087158203,
        194.220703125,
        29.403465270996094,
        1
      ],
      "name": "header"
    },
    {
      "mesh": 2,
      "name": "header_header_0"
    },
    {
      "children": [
        12
      ],
      "matrix": [
        1,
        0,
        0,
        0,
        0,
        1,
        0,
        0,
        0,
        0,
        1,
        0,
        12.239436149597168,
        84.435531616210938,
        29.903465270996094,
        1
      ],
      "name": "driverL"
    },
    {
      "mesh": 3,
      "name": "driverL_driverL_0"
    },
    {
      "children": [
        14
      ],
      "matrix": [
        1,
        0,
        0,
        0,
        0,
        1,
        0,
        0,
        0,
        0,
        1,
        0,
        93.394332885742188,
        88.310623168945312,
        29.903465270996094,
        1
      ],
      "name": "driverR"
    },
    {
      "mesh": 4,
      "name": "driverR_driverR_0"
    }
  ],
  "samplers": [
    {
      "magFilter": 9729,
      "minFilter": 9987,
      "wrapS": 10497,
      "wrapT": 10497
    }
  ],
  "scene": 0,
  "scenes": [
    {
      "name": "OSG_Scene",
      "nodes": [
        0
      ]
    }
  ],
  "textures": [
    {
      "sampler": 0,
      "source": 0
    },
    {
      "sampler": 0,
      "source": 1
    },
    {
      "sampler": 0,
      "source": 2
    },
    {
      "sampler": 0,
      "source": 3
    },
    {
      "sampler": 0,
      "source": 4
    },
    {
      "sampler": 0,
      "source": 5
    },
    {
      "sampler": 0,
      "source": 6
    },
    {
      "sampler": 0,
      "source": 7
    },
    {
      "sampler": 0,
      "source": 8
    },
    {
      "sampler": 0,
      "source": 9
    },
    {
      "sampler": 0,
      "source": 10
    },
    {
      "sampler": 0,
      "source": 11
    },
    {
      "sampler": 0,
      "source": 12
    }
  ]
}

